<svg xmlns="http://www.w3.org/2000/svg" viewBox="0 0 512 512">
  <rect width="512" height="512" rx="120" fill="#c4714a"/>

  <g transform="translate(110, 270) scale(0.82)">
    <ellipse cx="120" cy="120" rx="120" ry="100" fill="#1c1714"/>
    <ellipse cx="120" cy="112" rx="105" ry="85" fill="#2d2520"/>
    <rect x="220" y="98" width="80" height="28" rx="14" fill="#1c1714"/>
    <path d="M 60 100
             Q 58 75, 85 70
             Q 105 60, 125 67
             Q 150 60, 168 80
             Q 188 95, 180 120
             Q 185 140, 160 145
             Q 138 152, 115 148
             Q 90 152, 75 138
             Q 55 123, 60 100 Z"
          fill="#fdfaf5"/>
    <ellipse cx="122" cy="105" rx="25" ry="22" fill="#e8c96e"/>
    <ellipse cx="117" cy="100" rx="9" ry="7" fill="#f0d989" opacity="0.7"/>
  </g>

  <g transform="translate(285, 95) rotate(12, 75, 80) scale(0.8)">
    <rect x="38" y="65" width="115" height="125" fill="#fdfaf5"/>
    <circle cx="20" cy="75" r="40" fill="#fdfaf5"/>
    <circle cx="70" cy="55" r="40" fill="#fdfaf5"/>
    <circle cx="120" cy="55" r="40" fill="#fdfaf5"/>
    <circle cx="170" cy="75" r="40" fill="#fdfaf5"/>
    <rect x="38" y="170" width="115" height="22" rx="2" fill="#f0ebe1"/>
    <line x1="65" y1="170" x2="65" y2="192" stroke="#d4c5b3" stroke-width="2.5"/>
    <line x1="95" y1="170" x2="95" y2="192" stroke="#d4c5b3" stroke-width="2.5"/>
    <line x1="125" y1="170" x2="125" y2="192" stroke="#d4c5b3" stroke-width="2.5"/>
  </g>
</svg>
